<mxfile host="app.diagrams.net" agent="Mozilla/5.0 (Macintosh; Intel Mac OS X 10_15_7) AppleWebKit/537.36 (KHTML, like Gecko) Chrome/131.0.0.0 Safari/537.36" version="24.8.6">
  <diagram name="Page-1" id="5yACLu_tYYQ9U0vQjmjW">
    <mxGraphModel dx="1590" dy="968" grid="1" gridSize="10" guides="1" tooltips="1" connect="1" arrows="1" fold="1" page="1" pageScale="1" pageWidth="827" pageHeight="1169" math="0" shadow="0">
      <root>
        <mxCell id="0" />
        <mxCell id="1" parent="0" />
        <mxCell id="EhTKWdYSq4bksoR8cweC-1" value="&lt;font style=&quot;font-size: 36px;&quot;&gt;Pattern Generator&lt;/font&gt;" style="rounded=0;whiteSpace=wrap;html=1;" parent="1" vertex="1">
          <mxGeometry x="80" y="240" width="200" height="160" as="geometry" />
        </mxCell>
        <mxCell id="EhTKWdYSq4bksoR8cweC-2" value="" style="endArrow=classic;html=1;rounded=0;strokeWidth=3;exitX=1;exitY=0.5;exitDx=0;exitDy=0;" parent="1" source="EhTKWdYSq4bksoR8cweC-1" edge="1">
          <mxGeometry width="50" height="50" relative="1" as="geometry">
            <mxPoint x="467" y="316" as="sourcePoint" />
            <mxPoint x="1200" y="560" as="targetPoint" />
            <Array as="points">
              <mxPoint x="560" y="320" />
              <mxPoint x="560" y="440" />
              <mxPoint x="1200" y="440" />
            </Array>
          </mxGeometry>
        </mxCell>
        <mxCell id="EhTKWdYSq4bksoR8cweC-13" value="" style="endArrow=none;html=1;rounded=0;" parent="1" edge="1">
          <mxGeometry width="50" height="50" relative="1" as="geometry">
            <mxPoint x="360" y="288.18" as="sourcePoint" />
            <mxPoint x="440" y="288.18" as="targetPoint" />
          </mxGeometry>
        </mxCell>
        <mxCell id="EhTKWdYSq4bksoR8cweC-14" value="" style="endArrow=none;html=1;rounded=0;" parent="1" edge="1">
          <mxGeometry width="50" height="50" relative="1" as="geometry">
            <mxPoint x="440" y="288.18" as="sourcePoint" />
            <mxPoint x="440" y="208.18" as="targetPoint" />
          </mxGeometry>
        </mxCell>
        <mxCell id="EhTKWdYSq4bksoR8cweC-15" value="" style="endArrow=none;html=1;rounded=0;" parent="1" edge="1">
          <mxGeometry width="50" height="50" relative="1" as="geometry">
            <mxPoint x="440" y="208.18" as="sourcePoint" />
            <mxPoint x="520" y="208.18" as="targetPoint" />
          </mxGeometry>
        </mxCell>
        <mxCell id="tpLpwaPxmsg9jNZSOrgN-2" value="" style="endArrow=classic;html=1;rounded=0;strokeWidth=3;exitX=0.5;exitY=1;exitDx=0;exitDy=0;entryX=0.5;entryY=0;entryDx=0;entryDy=0;" parent="1" edge="1">
          <mxGeometry width="50" height="50" relative="1" as="geometry">
            <mxPoint x="820" y="441" as="sourcePoint" />
            <mxPoint x="820" y="560" as="targetPoint" />
          </mxGeometry>
        </mxCell>
        <mxCell id="tpLpwaPxmsg9jNZSOrgN-6" value="&lt;font style=&quot;font-size: 36px;&quot;&gt;FF&lt;/font&gt;" style="rounded=0;whiteSpace=wrap;html=1;" parent="1" vertex="1">
          <mxGeometry x="590" y="560" width="110" height="100" as="geometry" />
        </mxCell>
        <mxCell id="tpLpwaPxmsg9jNZSOrgN-7" value="" style="endArrow=classic;html=1;rounded=0;strokeWidth=3;exitX=0.5;exitY=1;exitDx=0;exitDy=0;entryX=0.5;entryY=0;entryDx=0;entryDy=0;" parent="1" edge="1">
          <mxGeometry width="50" height="50" relative="1" as="geometry">
            <mxPoint x="640" y="440" as="sourcePoint" />
            <mxPoint x="640" y="559" as="targetPoint" />
          </mxGeometry>
        </mxCell>
        <mxCell id="tpLpwaPxmsg9jNZSOrgN-8" value="&lt;font style=&quot;font-size: 36px;&quot;&gt;FF&lt;/font&gt;" style="rounded=0;whiteSpace=wrap;html=1;" parent="1" vertex="1">
          <mxGeometry x="770" y="560" width="110" height="100" as="geometry" />
        </mxCell>
        <mxCell id="tpLpwaPxmsg9jNZSOrgN-9" value="&lt;font style=&quot;font-size: 36px;&quot;&gt;FF&lt;/font&gt;" style="rounded=0;whiteSpace=wrap;html=1;" parent="1" vertex="1">
          <mxGeometry x="1150" y="560" width="110" height="100" as="geometry" />
        </mxCell>
        <mxCell id="tpLpwaPxmsg9jNZSOrgN-10" value="&lt;font style=&quot;font-size: 24px;&quot;&gt;Clock positive edge&lt;/font&gt;" style="text;html=1;align=center;verticalAlign=middle;resizable=0;points=[];autosize=1;strokeColor=none;fillColor=none;" parent="1" vertex="1">
          <mxGeometry x="370" y="148.18" width="230" height="40" as="geometry" />
        </mxCell>
        <mxCell id="tpLpwaPxmsg9jNZSOrgN-11" value="&lt;font style=&quot;font-size: 72px;&quot;&gt;...&lt;/font&gt;" style="text;html=1;align=center;verticalAlign=middle;resizable=0;points=[];autosize=1;strokeColor=none;fillColor=none;" parent="1" vertex="1">
          <mxGeometry x="975" y="540" width="80" height="100" as="geometry" />
        </mxCell>
        <mxCell id="tpLpwaPxmsg9jNZSOrgN-12" value="" style="swimlane;startSize=0;" parent="1" vertex="1">
          <mxGeometry x="530" y="240" width="790" height="500" as="geometry" />
        </mxCell>
        <mxCell id="tpLpwaPxmsg9jNZSOrgN-13" value="&lt;font style=&quot;font-size: 36px;&quot;&gt;Logic&lt;/font&gt;" style="text;html=1;align=center;verticalAlign=middle;resizable=0;points=[];autosize=1;strokeColor=none;fillColor=none;" parent="tpLpwaPxmsg9jNZSOrgN-12" vertex="1">
          <mxGeometry x="650" y="20" width="110" height="60" as="geometry" />
        </mxCell>
      </root>
    </mxGraphModel>
  </diagram>
</mxfile>
